# xmcd
#
# Track frame offsets: 
#        150
#        9236
#        18895
#        29562
#        42763
#        66220
#        79721
#        93818
#        111027
#        125406
#        140510
#        155301
#        168538
#        185774
#        203709
#        216541
#        231460
#        239974
#        249605
#        263359
#        292650
#        302689
#        314830
#
# Disc length: 4388 seconds
#
# Revision: 0
# Processed by: cddbd v1.5.1PL2 Copyright (c) Steve Scherf et al.
# Submitted via: ExactAudioCopy v0.95b3
#
DISCID=44112217
DTITLE=Dr. Feelgood - Stupidity and more
DYEAR=1900
DGENRE=Blues-Rock
TTITLE0=I'm talking about you
TTITLE1=Twenty years behind
TTITLE2=Stupidity
TTITLE3=All through the city
TTITLE4=I'm a man
TTITLE5=Walking the dog
TTITLE6=She does it right
TTITLE7=Going back home
TTITLE8=Back in the night
TTITLE9=I'm a hog for you
TTITLE10=Checking up on my baby
TTITLE11=Roxette
TTITLE12=Riot in cell block No.9
TTITLE13=Johnny B. Goode
TTITLE14=Take a tip
TTITLE15=Every kind of vice
TTITLE16=She's a wind up
TTITLE17=No mo do yakamo
TTITLE18=Love hound
TTITLE19=Shotgun Blues
TTITLE20=King for a day
TTITLE21=Milk and alcohol
TTITLE22=Down at the doctors
EXTD=
EXTT0=
EXTT1=
EXTT2=
EXTT3=
EXTT4=
EXTT5=
EXTT6=
EXTT7=
EXTT8=
EXTT9=
EXTT10=
EXTT11=
EXTT12=
EXTT13=
EXTT14=
EXTT15=
EXTT16=
EXTT17=
EXTT18=
EXTT19=
EXTT20=
EXTT21=
EXTT22=
PLAYORDER=
